<svg width="1867" height="949" viewBox="0 0 1867 949" fill="none" xmlns="http://www.w3.org/2000/svg">
<g filter="url(#filter0_f_25_42)">
<path d="M50 623L51.3505 626.65L55 628L51.3505 629.35L50 633L48.6495 629.35L45 628L48.6495 626.65L50 623Z" fill="white"/>
</g>
<g filter="url(#filter1_f_25_42)">
<path d="M109 119L110.35 122.65L114 124L110.35 125.35L109 129L107.65 125.35L104 124L107.65 122.65L109 119Z" fill="white"/>
</g>
<g filter="url(#filter2_f_25_42)">
<path d="M55 198L56.3505 201.65L60 203L56.3505 204.35L55 208L53.6495 204.35L50 203L53.6495 201.65L55 198Z" fill="white"/>
</g>
<g filter="url(#filter3_f_25_42)">
<path d="M370.5 40L371.175 41.8248L373 42.5L371.175 43.1752L370.5 45L369.825 43.1752L368 42.5L369.825 41.8248L370.5 40Z" fill="white"/>
</g>
<g filter="url(#filter4_f_25_42)">
<path d="M4.5 30L5.17523 31.8248L7 32.5L5.17523 33.1752L4.5 35L3.82477 33.1752L2 32.5L3.82477 31.8248L4.5 30Z" fill="white"/>
</g>
<g filter="url(#filter5_f_25_42)">
<path d="M594 155L595.35 158.65L599 160L595.35 161.35L594 165L592.65 161.35L589 160L592.65 158.65L594 155Z" fill="white"/>
</g>
<g filter="url(#filter6_f_25_42)">
<path d="M330 165L331.35 168.65L335 170L331.35 171.35L330 175L328.65 171.35L325 170L328.65 168.65L330 165Z" fill="white"/>
</g>
<g filter="url(#filter7_f_25_42)">
<path d="M500 73L501.35 76.6495L505 78L501.35 79.3505L500 83L498.65 79.3505L495 78L498.65 76.6495L500 73Z" fill="white"/>
</g>
<g filter="url(#filter8_f_25_42)">
<path d="M225 32L226.35 35.6495L230 37L226.35 38.3505L225 42L223.65 38.3505L220 37L223.65 35.6495L225 32Z" fill="white"/>
</g>
<g filter="url(#filter9_f_25_42)">
<path d="M205 741L206.35 744.65L210 746L206.35 747.35L205 751L203.65 747.35L200 746L203.65 744.65L205 741Z" fill="white"/>
</g>
<g filter="url(#filter10_f_25_42)">
<path d="M955 129L956.35 132.65L960 134L956.35 135.35L955 139L953.65 135.35L950 134L953.65 132.65L955 129Z" fill="white"/>
</g>
<g filter="url(#filter11_f_25_42)">
<path d="M801 188L802.35 191.65L806 193L802.35 194.35L801 198L799.65 194.35L796 193L799.65 191.65L801 188Z" fill="white"/>
</g>
<g filter="url(#filter12_f_25_42)">
<path d="M1650 688L1651.35 691.65L1655 693L1651.35 694.35L1650 698L1648.65 694.35L1645 693L1648.65 691.65L1650 688Z" fill="white"/>
</g>
<g filter="url(#filter13_f_25_42)">
<path d="M1577 924L1578.35 927.65L1582 929L1578.35 930.35L1577 934L1575.65 930.35L1572 929L1575.65 927.65L1577 924Z" fill="white"/>
</g>
<g filter="url(#filter14_f_25_42)">
<path d="M1198 613L1199.35 616.65L1203 618L1199.35 619.35L1198 623L1196.65 619.35L1193 618L1196.65 616.65L1198 613Z" fill="white"/>
</g>
<g filter="url(#filter15_f_25_42)">
<path d="M1622 335L1623.35 338.65L1627 340L1623.35 341.35L1622 345L1620.65 341.35L1617 340L1620.65 338.65L1622 335Z" fill="white"/>
</g>
<g filter="url(#filter16_f_25_42)">
<path d="M1341.5 283L1342.18 284.825L1344 285.5L1342.18 286.175L1341.5 288L1340.82 286.175L1339 285.5L1340.82 284.825L1341.5 283Z" fill="white"/>
</g>
<g filter="url(#filter17_f_25_42)">
<path d="M1064.5 676L1065.18 677.825L1067 678.5L1065.18 679.175L1064.5 681L1063.82 679.175L1062 678.5L1063.82 677.825L1064.5 676Z" fill="white"/>
</g>
<g filter="url(#filter18_f_25_42)">
<path d="M457.5 698L458.175 699.825L460 700.5L458.175 701.175L457.5 703L456.825 701.175L455 700.5L456.825 699.825L457.5 698Z" fill="white"/>
</g>
<g filter="url(#filter19_f_25_42)">
<path d="M877.5 2L878.175 3.82477L880 4.5L878.175 5.17523L877.5 7L876.825 5.17523L875 4.5L876.825 3.82477L877.5 2Z" fill="white"/>
</g>
<g filter="url(#filter20_f_25_42)">
<path d="M928.5 254L929.175 255.825L931 256.5L929.175 257.175L928.5 259L927.825 257.175L926 256.5L927.825 255.825L928.5 254Z" fill="white"/>
</g>
<g filter="url(#filter21_f_25_42)">
<path d="M1148 797L1149.35 800.65L1153 802L1149.35 803.35L1148 807L1146.65 803.35L1143 802L1146.65 800.65L1148 797Z" fill="white"/>
</g>
<g filter="url(#filter22_f_25_42)">
<path d="M991 919L992.35 922.65L996 924L992.35 925.35L991 929L989.65 925.35L986 924L989.65 922.65L991 919Z" fill="white"/>
</g>
<g filter="url(#filter23_f_25_42)">
<path d="M1825 155L1826.35 158.65L1830 160L1826.35 161.35L1825 165L1823.65 161.35L1820 160L1823.65 158.65L1825 155Z" fill="white"/>
</g>
<g filter="url(#filter24_f_25_42)">
<path d="M1258 160L1259.35 163.65L1263 165L1259.35 166.35L1258 170L1256.65 166.35L1253 165L1256.65 163.65L1258 160Z" fill="white"/>
</g>
<g filter="url(#filter25_f_25_42)">
<path d="M1341.5 942L1342.18 943.825L1344 944.5L1342.18 945.175L1341.5 947L1340.82 945.175L1339 944.5L1340.82 943.825L1341.5 942Z" fill="white"/>
</g>
<g filter="url(#filter26_f_25_42)">
<path d="M1428 68L1429.35 71.6495L1433 73L1429.35 74.3505L1428 78L1426.65 74.3505L1423 73L1426.65 71.6495L1428 68Z" fill="white"/>
</g>
<g filter="url(#filter27_f_25_42)">
<path d="M1755 894L1756.35 897.65L1760 899L1756.35 900.35L1755 904L1753.65 900.35L1750 899L1753.65 897.65L1755 894Z" fill="white"/>
</g>
<g filter="url(#filter28_f_25_42)">
<path d="M761.5 633L762.175 634.825L764 635.5L762.175 636.175L761.5 638L760.825 636.175L759 635.5L760.825 634.825L761.5 633Z" fill="white"/>
</g>
<g filter="url(#filter29_f_25_42)">
<path d="M109 119L110.35 122.65L114 124L110.35 125.35L109 129L107.65 125.35L104 124L107.65 122.65L109 119Z" fill="white"/>
</g>
<defs>
<filter id="filter0_f_25_42" x="43" y="621" width="14" height="14" filterUnits="userSpaceOnUse" color-interpolation-filters="sRGB">
<feFlood flood-opacity="0" result="BackgroundImageFix"/>
<feBlend mode="normal" in="SourceGraphic" in2="BackgroundImageFix" result="shape"/>
<feGaussianBlur stdDeviation="1" result="effect1_foregroundBlur_25_42"/>
</filter>
<filter id="filter1_f_25_42" x="99" y="114" width="20" height="20" filterUnits="userSpaceOnUse" color-interpolation-filters="sRGB">
<feFlood flood-opacity="0" result="BackgroundImageFix"/>
<feBlend mode="normal" in="SourceGraphic" in2="BackgroundImageFix" result="shape"/>
<feGaussianBlur stdDeviation="2.5" result="effect1_foregroundBlur_25_42"/>
</filter>
<filter id="filter2_f_25_42" x="48" y="196" width="14" height="14" filterUnits="userSpaceOnUse" color-interpolation-filters="sRGB">
<feFlood flood-opacity="0" result="BackgroundImageFix"/>
<feBlend mode="normal" in="SourceGraphic" in2="BackgroundImageFix" result="shape"/>
<feGaussianBlur stdDeviation="1" result="effect1_foregroundBlur_25_42"/>
</filter>
<filter id="filter3_f_25_42" x="366" y="38" width="9" height="9" filterUnits="userSpaceOnUse" color-interpolation-filters="sRGB">
<feFlood flood-opacity="0" result="BackgroundImageFix"/>
<feBlend mode="normal" in="SourceGraphic" in2="BackgroundImageFix" result="shape"/>
<feGaussianBlur stdDeviation="1" result="effect1_foregroundBlur_25_42"/>
</filter>
<filter id="filter4_f_25_42" x="0" y="28" width="9" height="9" filterUnits="userSpaceOnUse" color-interpolation-filters="sRGB">
<feFlood flood-opacity="0" result="BackgroundImageFix"/>
<feBlend mode="normal" in="SourceGraphic" in2="BackgroundImageFix" result="shape"/>
<feGaussianBlur stdDeviation="1" result="effect1_foregroundBlur_25_42"/>
</filter>
<filter id="filter5_f_25_42" x="587" y="153" width="14" height="14" filterUnits="userSpaceOnUse" color-interpolation-filters="sRGB">
<feFlood flood-opacity="0" result="BackgroundImageFix"/>
<feBlend mode="normal" in="SourceGraphic" in2="BackgroundImageFix" result="shape"/>
<feGaussianBlur stdDeviation="1" result="effect1_foregroundBlur_25_42"/>
</filter>
<filter id="filter6_f_25_42" x="323" y="163" width="14" height="14" filterUnits="userSpaceOnUse" color-interpolation-filters="sRGB">
<feFlood flood-opacity="0" result="BackgroundImageFix"/>
<feBlend mode="normal" in="SourceGraphic" in2="BackgroundImageFix" result="shape"/>
<feGaussianBlur stdDeviation="1" result="effect1_foregroundBlur_25_42"/>
</filter>
<filter id="filter7_f_25_42" x="493" y="71" width="14" height="14" filterUnits="userSpaceOnUse" color-interpolation-filters="sRGB">
<feFlood flood-opacity="0" result="BackgroundImageFix"/>
<feBlend mode="normal" in="SourceGraphic" in2="BackgroundImageFix" result="shape"/>
<feGaussianBlur stdDeviation="1" result="effect1_foregroundBlur_25_42"/>
</filter>
<filter id="filter8_f_25_42" x="218" y="30" width="14" height="14" filterUnits="userSpaceOnUse" color-interpolation-filters="sRGB">
<feFlood flood-opacity="0" result="BackgroundImageFix"/>
<feBlend mode="normal" in="SourceGraphic" in2="BackgroundImageFix" result="shape"/>
<feGaussianBlur stdDeviation="1" result="effect1_foregroundBlur_25_42"/>
</filter>
<filter id="filter9_f_25_42" x="198" y="739" width="14" height="14" filterUnits="userSpaceOnUse" color-interpolation-filters="sRGB">
<feFlood flood-opacity="0" result="BackgroundImageFix"/>
<feBlend mode="normal" in="SourceGraphic" in2="BackgroundImageFix" result="shape"/>
<feGaussianBlur stdDeviation="1" result="effect1_foregroundBlur_25_42"/>
</filter>
<filter id="filter10_f_25_42" x="948" y="127" width="14" height="14" filterUnits="userSpaceOnUse" color-interpolation-filters="sRGB">
<feFlood flood-opacity="0" result="BackgroundImageFix"/>
<feBlend mode="normal" in="SourceGraphic" in2="BackgroundImageFix" result="shape"/>
<feGaussianBlur stdDeviation="1" result="effect1_foregroundBlur_25_42"/>
</filter>
<filter id="filter11_f_25_42" x="794" y="186" width="14" height="14" filterUnits="userSpaceOnUse" color-interpolation-filters="sRGB">
<feFlood flood-opacity="0" result="BackgroundImageFix"/>
<feBlend mode="normal" in="SourceGraphic" in2="BackgroundImageFix" result="shape"/>
<feGaussianBlur stdDeviation="1" result="effect1_foregroundBlur_25_42"/>
</filter>
<filter id="filter12_f_25_42" x="1643" y="686" width="14" height="14" filterUnits="userSpaceOnUse" color-interpolation-filters="sRGB">
<feFlood flood-opacity="0" result="BackgroundImageFix"/>
<feBlend mode="normal" in="SourceGraphic" in2="BackgroundImageFix" result="shape"/>
<feGaussianBlur stdDeviation="1" result="effect1_foregroundBlur_25_42"/>
</filter>
<filter id="filter13_f_25_42" x="1570" y="922" width="14" height="14" filterUnits="userSpaceOnUse" color-interpolation-filters="sRGB">
<feFlood flood-opacity="0" result="BackgroundImageFix"/>
<feBlend mode="normal" in="SourceGraphic" in2="BackgroundImageFix" result="shape"/>
<feGaussianBlur stdDeviation="1" result="effect1_foregroundBlur_25_42"/>
</filter>
<filter id="filter14_f_25_42" x="1191" y="611" width="14" height="14" filterUnits="userSpaceOnUse" color-interpolation-filters="sRGB">
<feFlood flood-opacity="0" result="BackgroundImageFix"/>
<feBlend mode="normal" in="SourceGraphic" in2="BackgroundImageFix" result="shape"/>
<feGaussianBlur stdDeviation="1" result="effect1_foregroundBlur_25_42"/>
</filter>
<filter id="filter15_f_25_42" x="1615" y="333" width="14" height="14" filterUnits="userSpaceOnUse" color-interpolation-filters="sRGB">
<feFlood flood-opacity="0" result="BackgroundImageFix"/>
<feBlend mode="normal" in="SourceGraphic" in2="BackgroundImageFix" result="shape"/>
<feGaussianBlur stdDeviation="1" result="effect1_foregroundBlur_25_42"/>
</filter>
<filter id="filter16_f_25_42" x="1337" y="281" width="9" height="9" filterUnits="userSpaceOnUse" color-interpolation-filters="sRGB">
<feFlood flood-opacity="0" result="BackgroundImageFix"/>
<feBlend mode="normal" in="SourceGraphic" in2="BackgroundImageFix" result="shape"/>
<feGaussianBlur stdDeviation="1" result="effect1_foregroundBlur_25_42"/>
</filter>
<filter id="filter17_f_25_42" x="1060" y="674" width="9" height="9" filterUnits="userSpaceOnUse" color-interpolation-filters="sRGB">
<feFlood flood-opacity="0" result="BackgroundImageFix"/>
<feBlend mode="normal" in="SourceGraphic" in2="BackgroundImageFix" result="shape"/>
<feGaussianBlur stdDeviation="1" result="effect1_foregroundBlur_25_42"/>
</filter>
<filter id="filter18_f_25_42" x="453" y="696" width="9" height="9" filterUnits="userSpaceOnUse" color-interpolation-filters="sRGB">
<feFlood flood-opacity="0" result="BackgroundImageFix"/>
<feBlend mode="normal" in="SourceGraphic" in2="BackgroundImageFix" result="shape"/>
<feGaussianBlur stdDeviation="1" result="effect1_foregroundBlur_25_42"/>
</filter>
<filter id="filter19_f_25_42" x="873" y="0" width="9" height="9" filterUnits="userSpaceOnUse" color-interpolation-filters="sRGB">
<feFlood flood-opacity="0" result="BackgroundImageFix"/>
<feBlend mode="normal" in="SourceGraphic" in2="BackgroundImageFix" result="shape"/>
<feGaussianBlur stdDeviation="1" result="effect1_foregroundBlur_25_42"/>
</filter>
<filter id="filter20_f_25_42" x="924" y="252" width="9" height="9" filterUnits="userSpaceOnUse" color-interpolation-filters="sRGB">
<feFlood flood-opacity="0" result="BackgroundImageFix"/>
<feBlend mode="normal" in="SourceGraphic" in2="BackgroundImageFix" result="shape"/>
<feGaussianBlur stdDeviation="1" result="effect1_foregroundBlur_25_42"/>
</filter>
<filter id="filter21_f_25_42" x="1141" y="795" width="14" height="14" filterUnits="userSpaceOnUse" color-interpolation-filters="sRGB">
<feFlood flood-opacity="0" result="BackgroundImageFix"/>
<feBlend mode="normal" in="SourceGraphic" in2="BackgroundImageFix" result="shape"/>
<feGaussianBlur stdDeviation="1" result="effect1_foregroundBlur_25_42"/>
</filter>
<filter id="filter22_f_25_42" x="984" y="917" width="14" height="14" filterUnits="userSpaceOnUse" color-interpolation-filters="sRGB">
<feFlood flood-opacity="0" result="BackgroundImageFix"/>
<feBlend mode="normal" in="SourceGraphic" in2="BackgroundImageFix" result="shape"/>
<feGaussianBlur stdDeviation="1" result="effect1_foregroundBlur_25_42"/>
</filter>
<filter id="filter23_f_25_42" x="1818" y="153" width="14" height="14" filterUnits="userSpaceOnUse" color-interpolation-filters="sRGB">
<feFlood flood-opacity="0" result="BackgroundImageFix"/>
<feBlend mode="normal" in="SourceGraphic" in2="BackgroundImageFix" result="shape"/>
<feGaussianBlur stdDeviation="1" result="effect1_foregroundBlur_25_42"/>
</filter>
<filter id="filter24_f_25_42" x="1251" y="158" width="14" height="14" filterUnits="userSpaceOnUse" color-interpolation-filters="sRGB">
<feFlood flood-opacity="0" result="BackgroundImageFix"/>
<feBlend mode="normal" in="SourceGraphic" in2="BackgroundImageFix" result="shape"/>
<feGaussianBlur stdDeviation="1" result="effect1_foregroundBlur_25_42"/>
</filter>
<filter id="filter25_f_25_42" x="1337" y="940" width="9" height="9" filterUnits="userSpaceOnUse" color-interpolation-filters="sRGB">
<feFlood flood-opacity="0" result="BackgroundImageFix"/>
<feBlend mode="normal" in="SourceGraphic" in2="BackgroundImageFix" result="shape"/>
<feGaussianBlur stdDeviation="1" result="effect1_foregroundBlur_25_42"/>
</filter>
<filter id="filter26_f_25_42" x="1421" y="66" width="14" height="14" filterUnits="userSpaceOnUse" color-interpolation-filters="sRGB">
<feFlood flood-opacity="0" result="BackgroundImageFix"/>
<feBlend mode="normal" in="SourceGraphic" in2="BackgroundImageFix" result="shape"/>
<feGaussianBlur stdDeviation="1" result="effect1_foregroundBlur_25_42"/>
</filter>
<filter id="filter27_f_25_42" x="1748" y="892" width="14" height="14" filterUnits="userSpaceOnUse" color-interpolation-filters="sRGB">
<feFlood flood-opacity="0" result="BackgroundImageFix"/>
<feBlend mode="normal" in="SourceGraphic" in2="BackgroundImageFix" result="shape"/>
<feGaussianBlur stdDeviation="1" result="effect1_foregroundBlur_25_42"/>
</filter>
<filter id="filter28_f_25_42" x="757" y="631" width="9" height="9" filterUnits="userSpaceOnUse" color-interpolation-filters="sRGB">
<feFlood flood-opacity="0" result="BackgroundImageFix"/>
<feBlend mode="normal" in="SourceGraphic" in2="BackgroundImageFix" result="shape"/>
<feGaussianBlur stdDeviation="1" result="effect1_foregroundBlur_25_42"/>
</filter>
<filter id="filter29_f_25_42" x="102" y="117" width="14" height="14" filterUnits="userSpaceOnUse" color-interpolation-filters="sRGB">
<feFlood flood-opacity="0" result="BackgroundImageFix"/>
<feBlend mode="normal" in="SourceGraphic" in2="BackgroundImageFix" result="shape"/>
<feGaussianBlur stdDeviation="1" result="effect1_foregroundBlur_25_42"/>
</filter>
</defs>
</svg>
