<svg width="95" height="96" viewBox="0 0 95 96" fill="none" xmlns="http://www.w3.org/2000/svg">
<g filter="url(#filter0_d_16_93)">
<path d="M11.9896 91.3469V92.5016C11.9896 93.1393 11.4726 93.6562 10.8349 93.6562V93.6562C10.1973 93.6562 9.6803 93.1393 9.6803 92.5016V92.5016C9.6803 91.8639 10.1973 91.3469 10.8349 91.3469H11.9896ZM11.9896 91.3469V89.0376C11.9896 88.3999 12.5066 87.883 13.1442 87.883V87.883C13.7819 87.883 14.2989 88.3999 14.2989 89.0376V89.0376V87.5448C14.2989 87.0939 14.6644 86.7283 15.1154 86.7283V86.7283C15.3319 86.7283 15.5396 86.6423 15.6927 86.4892L17.7628 84.419L19.6925 82.4894C19.9439 82.2379 20.1532 81.9476 20.3123 81.6295L20.9501 80.3539C21.1197 80.0147 21.4663 79.8004 21.8456 79.8004V79.8004C22.1804 79.8004 22.493 79.6331 22.6787 79.3546L24.2442 77.0063C24.5232 76.5878 24.9928 76.3365 25.4958 76.3365V76.3365C26.3266 76.3365 27 75.663 27 74.8322V74.6045C27 73.648 27.7755 72.8725 28.732 72.8725H30.1914C30.9796 72.8725 31.6186 72.2335 31.6186 71.4453V71.4453C31.6186 70.9047 31.9241 70.4105 32.4076 70.1688L35.6563 68.5444C36.0123 68.3664 36.2372 68.0025 36.2372 67.6044V67.6044C36.2372 67.2851 36.3824 66.9832 36.6317 66.7837L41.2129 63.1187M42.0105 62.4807L41.2129 63.1187M41.2129 63.1187V60.8017C41.2129 59.8159 42.0121 59.0167 42.9979 59.0167V59.0167C44.2162 59.0167 45.0704 57.8047 44.6852 56.6489V56.6489C44.4639 55.9851 44.6433 55.2447 45.15 54.7621L92.815 9.36682" stroke="url(#paint0_linear_16_93)" stroke-width="4.09405"/>
</g>
<defs>
<filter id="filter0_d_16_93" x="0.673421" y="0.924641" width="93.5534" height="94.7786" filterUnits="userSpaceOnUse" color-interpolation-filters="sRGB">
<feFlood flood-opacity="0" result="BackgroundImageFix"/>
<feColorMatrix in="SourceAlpha" type="matrix" values="0 0 0 0 0 0 0 0 0 0 0 0 0 0 0 0 0 0 127 0" result="hardAlpha"/>
<feOffset dx="-4.09405" dy="-4.09405"/>
<feGaussianBlur stdDeviation="1.43292"/>
<feColorMatrix type="matrix" values="0 0 0 0 0.104948 0 0 0 0 0.109556 0 0 0 0 0.270833 0 0 0 1 0"/>
<feBlend mode="normal" in2="BackgroundImageFix" result="effect1_dropShadow_16_93"/>
<feBlend mode="normal" in="SourceGraphic" in2="effect1_dropShadow_16_93" result="shape"/>
</filter>
<linearGradient id="paint0_linear_16_93" x1="11.9896" y1="98.2748" x2="103.207" y2="0.129629" gradientUnits="userSpaceOnUse">
<stop stop-color="white"/>
<stop offset="1" stop-color="white" stop-opacity="0"/>
</linearGradient>
</defs>
</svg>
